<svg width="1024" height="1024" viewBox="0 0 1024 1024" xmlns="http://www.w3.org/2000/svg">
  <!-- Transparent background — Android adaptive icon foreground layer -->
  <!-- Safe zone: circle r=340 centered at 512,512 (66% of 1024) -->
  <!-- All artwork fits within 172..852 on each axis -->

  <!-- Credit card rotated -12deg, centered ~512,500 -->
  <g transform="rotate(-12,512,500)">
    <rect x="206" y="312" width="612" height="386" rx="48" fill="#1A4A24"/>
    <rect x="206" y="378" width="612" height="64" fill="#12361C" opacity="0.95"/>
    <!-- EMV chip -->
    <rect x="258" y="442" width="108" height="80" rx="14" fill="#C8A84B" opacity="0.95"/>
    <rect x="276" y="458" width="72" height="46" rx="7" fill="#A0832E"/>
    <!-- Contactless waves -->
    <path d="M376 450 Q408 484 376 518" fill="none" stroke="#A5D6A7" stroke-width="8" stroke-linecap="round" opacity="0.55"/>
    <path d="M356 432 Q408 484 356 536" fill="none" stroke="#A5D6A7" stroke-width="8" stroke-linecap="round" opacity="0.35"/>
    <!-- Card dots -->
    <circle cx="460" cy="562" r="12" fill="#A5D6A7" opacity="0.3"/>
    <circle cx="494" cy="562" r="12" fill="#A5D6A7" opacity="0.3"/>
    <circle cx="528" cy="562" r="12" fill="#A5D6A7" opacity="0.3"/>
    <circle cx="562" cy="562" r="12" fill="#A5D6A7" opacity="0.3"/>
    <circle cx="612" cy="562" r="12" fill="#A5D6A7" opacity="0.3"/>
    <circle cx="646" cy="562" r="12" fill="#A5D6A7" opacity="0.3"/>
    <circle cx="680" cy="562" r="12" fill="#A5D6A7" opacity="0.3"/>
    <circle cx="714" cy="562" r="12" fill="#A5D6A7" opacity="0.3"/>
  </g>

  <!-- Gold ₹ -->
  <text x="514" y="580" text-anchor="middle"
        font-size="370" font-weight="700"
        fill="#FFB300"
        font-family="system-ui,-apple-system,Helvetica,Arial,sans-serif">₹</text>

  <!-- Sparkle dots -->
  <circle cx="220" cy="228" r="14" fill="#FFB300" opacity="0.6"/>
  <circle cx="810" cy="210" r="10" fill="#FFB300" opacity="0.45"/>
  <circle cx="822" cy="806" r="13" fill="#FFB300" opacity="0.5"/>
  <circle cx="212" cy="818" r="9" fill="#FFB300" opacity="0.35"/>
</svg>
